<?xml version="1.0" encoding="utf-8"?>
<!-- Generator: Adobe Illustrator 23.1.1, SVG Export Plug-In . SVG Version: 6.00 Build 0)  -->
<svg version="1.1" id="Capa_1" xmlns="http://www.w3.org/2000/svg" xmlns:xlink="http://www.w3.org/1999/xlink" x="0px" y="0px"
	 viewBox="0 0 566.93 566.93" style="enable-background:new 0 0 566.93 566.93;" xml:space="preserve">
<style type="text/css">
	.st0{fill:#FFED00;stroke:#000000;stroke-miterlimit:10;}
	.st1{fill:#FFFFFF;stroke:#000000;stroke-miterlimit:10;}
</style>
<polygon class="st0" points="143.71,267.05 101.74,207.44 28.83,208.22 72.56,149.88 49.29,80.78 118.29,104.34 176.81,60.86 
	175.73,133.76 235.17,175.98 165.5,197.47 "/>
<polygon class="st1" points="279.31,351.8 237.33,292.18 164.43,292.96 208.15,234.62 184.88,165.53 253.88,189.08 312.4,145.6 
	311.32,218.5 370.76,260.72 301.09,282.22 "/>
<polygon class="st1" points="187.78,477.22 145.81,417.61 72.9,418.39 116.63,360.05 93.36,290.95 162.36,314.51 220.88,271.03 
	219.79,343.93 279.23,386.15 209.57,407.64 "/>
<polygon class="st0" points="371.68,483.15 329.71,423.54 256.8,424.32 300.53,365.98 277.26,296.88 346.25,320.44 404.78,276.96 
	403.69,349.86 463.13,392.08 393.46,413.58 "/>
</svg>
